<svg width="900" height="300" xmlns="http://www.w3.org/2000/svg">
  <rect width="100%" height="100%" fill="#111" rx="16"/>
  <text x="450" y="50" font-family="Space Grotesk, sans-serif" font-size="28" font-weight="bold" fill="#fff" text-anchor="middle">Process Workflow Automation</text>
  <rect x="50" y="100" width="160" height="100" fill="#1A1A1A" stroke="#ea580c" stroke-width="3" rx="12"/>
              <text x="130" y="155" font-family="Space Grotesk, sans-serif" font-size="16" font-weight="bold" fill="#fff" text-anchor="middle">Pull Data</text><rect x="250" y="100" width="160" height="100" fill="#1A1A1A" stroke="#ea580c" stroke-width="3" rx="12"/>
              <text x="330" y="155" font-family="Space Grotesk, sans-serif" font-size="16" font-weight="bold" fill="#fff" text-anchor="middle">n8n</text><rect x="450" y="100" width="160" height="100" fill="#1A1A1A" stroke="#ea580c" stroke-width="3" rx="12"/>
              <text x="530" y="155" font-family="Space Grotesk, sans-serif" font-size="16" font-weight="bold" fill="#fff" text-anchor="middle">Analyze</text><rect x="650" y="100" width="160" height="100" fill="#1A1A1A" stroke="#ea580c" stroke-width="3" rx="12"/>
              <text x="730" y="155" font-family="Space Grotesk, sans-serif" font-size="16" font-weight="bold" fill="#fff" text-anchor="middle">Docs</text>
  <path d="M 210 150 L 250 150" stroke="#ea580c" stroke-width="4" marker-end="url(#arrow)"/>
                 <polygon points="240,145 250,150 240,155" fill="#ea580c" /><path d="M 410 150 L 450 150" stroke="#ea580c" stroke-width="4" marker-end="url(#arrow)"/>
                 <polygon points="440,145 450,150 440,155" fill="#ea580c" /><path d="M 610 150 L 650 150" stroke="#ea580c" stroke-width="4" marker-end="url(#arrow)"/>
                 <polygon points="640,145 650,150 640,155" fill="#ea580c" />
</svg>